<svg width="76" height="76" viewBox="0 0 76 76" fill="none" xmlns="http://www.w3.org/2000/svg">
<circle cx="38" cy="38" r="38" fill="#F6821F" fill-opacity="0.16"/>
<circle cx="38" cy="38" r="34" fill="#141313"/>
<path d="M37.1498 41.7434C38.4916 40.8522 39.5107 39.5527 40.0564 38.0372C40.6022 36.5217 40.6455 34.8708 40.18 33.3287C39.7146 31.7867 38.765 30.4355 37.4719 29.4751C36.1788 28.5147 34.6108 27.9961 33 27.9961C31.3893 27.9961 29.8213 28.5147 28.5282 29.4751C27.2351 30.4355 26.2855 31.7867 25.82 33.3287C25.3546 34.8708 25.3979 36.5217 25.9436 38.0372C26.4894 39.5527 27.5085 40.8522 28.8503 41.7434C26.563 42.5872 24.5862 44.1061 23.1818 46.0989C23.0764 46.2486 23.0141 46.4245 23.0018 46.6072C22.9895 46.79 23.0276 46.9726 23.1119 47.1352C23.1963 47.2977 23.3237 47.434 23.4802 47.5291C23.6368 47.6242 23.8164 47.6745 23.9996 47.6745L42.0001 47.6739C42.1833 47.6739 42.3629 47.6235 42.5194 47.5284C42.676 47.4333 42.8034 47.297 42.8877 47.1344C42.9721 46.9718 43.0101 46.7892 42.9978 46.6065C42.9854 46.4237 42.9231 46.2479 42.8177 46.0981C41.4134 44.1057 39.4368 42.5871 37.1498 41.7434Z" fill="#F6821F"/>
<path d="M53.0081 46.0982C51.6037 44.1057 49.6271 42.5871 47.3402 41.7434C48.8271 40.7536 49.9119 39.2657 50.3995 37.5473C50.887 35.8289 50.7453 33.9929 49.9997 32.3697C49.2542 30.7465 47.9538 29.4426 46.3325 28.6928C44.7113 27.943 42.8757 27.7964 41.156 28.2794C40.9999 28.3233 40.8568 28.4046 40.7391 28.5161C40.6213 28.6276 40.5325 28.7661 40.4802 28.9196C40.4279 29.0731 40.4137 29.237 40.4389 29.3973C40.464 29.5575 40.5278 29.7092 40.6246 29.8392C41.7551 31.3577 42.4049 33.1799 42.4905 35.0711C42.5761 36.9622 42.0934 38.8356 41.1047 40.45C40.9742 40.6629 40.928 40.917 40.9753 41.1622C41.0226 41.4074 41.16 41.6261 41.3604 41.7752C41.7395 42.0573 42.1043 42.3583 42.4533 42.677C42.4714 42.6966 42.4895 42.7161 42.5094 42.7345C43.8441 43.9684 44.9259 45.4504 45.6943 47.0977C45.7748 47.2701 45.9028 47.4159 46.0633 47.5181C46.2238 47.6203 46.4102 47.6746 46.6005 47.6746L52.1906 47.6739C52.3737 47.6739 52.5533 47.6235 52.7098 47.5284C52.8664 47.4333 52.9937 47.297 53.0781 47.1344C53.1624 46.9718 53.2005 46.7892 53.1881 46.6065C53.1758 46.4237 53.1135 46.2479 53.0081 46.0981L53.0081 46.0982Z" fill="#F6821F"/>
</svg>
