<svg width="116" height="116" viewBox="0 0 116 116" fill="none" xmlns="http://www.w3.org/2000/svg">
<path d="M58 44V48" stroke="#F6821F" stroke-width="4" stroke-linecap="round" stroke-linejoin="round"/>
<path d="M58 68V72" stroke="#F6821F" stroke-width="4" stroke-linecap="round" stroke-linejoin="round"/>
<g filter="url(#filter0_d_1122_354)">
<path d="M58 82C71.2548 82 82 71.2548 82 58C82 44.7452 71.2548 34 58 34C44.7452 34 34 44.7452 34 58C34 71.2548 44.7452 82 58 82Z" stroke="#F6821F" stroke-width="4" stroke-linecap="round" stroke-linejoin="round" shape-rendering="crispEdges"/>
</g>
<g filter="url(#filter1_d_1122_354)">
<path fill-rule="evenodd" clip-rule="evenodd" d="M55 49.8285C54.1588 49.8285 53.3522 50.1627 52.7574 50.7574C52.1627 51.3522 51.8285 52.1588 51.8285 53C51.8285 53.8411 52.1627 54.6477 52.7574 55.2425C53.3522 55.8373 54.1588 56.1714 55 56.1714H61C62.811 56.1714 64.5479 56.8908 65.8285 58.1714C67.1091 59.452 67.8285 61.1889 67.8285 63C67.8285 64.811 67.1091 66.5479 65.8285 67.8285C64.5479 69.1091 62.811 69.8285 61 69.8285H52C50.9901 69.8285 50.1714 69.0099 50.1714 68C50.1714 66.9901 50.9901 66.1714 52 66.1714H61C61.8411 66.1714 62.6477 65.8373 63.2425 65.2425C63.8373 64.6477 64.1714 63.8411 64.1714 63C64.1714 62.1588 63.8373 61.3522 63.2425 60.7574C62.6477 60.1627 61.8411 59.8285 61 59.8285H55C53.1889 59.8285 51.452 59.1091 50.1714 57.8285C48.8908 56.5479 48.1714 54.811 48.1714 53C48.1714 51.1889 48.8908 49.452 50.1714 48.1714C51.452 46.8908 53.1889 46.1714 55 46.1714H64C65.0099 46.1714 65.8285 46.9901 65.8285 48C65.8285 49.0099 65.0099 49.8285 64 49.8285H55Z" fill="#F6821F"/>
</g>
<defs>
<filter id="filter0_d_1122_354" x="0" y="0" width="116" height="116" filterUnits="userSpaceOnUse" color-interpolation-filters="sRGB">
<feFlood flood-opacity="0" result="BackgroundImageFix"/>
<feColorMatrix in="SourceAlpha" type="matrix" values="0 0 0 0 0 0 0 0 0 0 0 0 0 0 0 0 0 0 127 0" result="hardAlpha"/>
<feOffset/>
<feGaussianBlur stdDeviation="16"/>
<feComposite in2="hardAlpha" operator="out"/>
<feColorMatrix type="matrix" values="0 0 0 0 0.984314 0 0 0 0 0.721569 0 0 0 0 0.0313726 0 0 0 0.32 0"/>
<feBlend mode="normal" in2="BackgroundImageFix" result="effect1_dropShadow_1122_354"/>
<feBlend mode="normal" in="SourceGraphic" in2="effect1_dropShadow_1122_354" result="shape"/>
</filter>
<filter id="filter1_d_1122_354" x="16.1714" y="14.1714" width="83.6572" height="87.6571" filterUnits="userSpaceOnUse" color-interpolation-filters="sRGB">
<feFlood flood-opacity="0" result="BackgroundImageFix"/>
<feColorMatrix in="SourceAlpha" type="matrix" values="0 0 0 0 0 0 0 0 0 0 0 0 0 0 0 0 0 0 127 0" result="hardAlpha"/>
<feOffset/>
<feGaussianBlur stdDeviation="16"/>
<feComposite in2="hardAlpha" operator="out"/>
<feColorMatrix type="matrix" values="0 0 0 0 0.984314 0 0 0 0 0.721569 0 0 0 0 0.0313726 0 0 0 0.32 0"/>
<feBlend mode="normal" in2="BackgroundImageFix" result="effect1_dropShadow_1122_354"/>
<feBlend mode="normal" in="SourceGraphic" in2="effect1_dropShadow_1122_354" result="shape"/>
</filter>
</defs>
</svg>
