<svg width="76" height="76" viewBox="0 0 76 76" fill="none" xmlns="http://www.w3.org/2000/svg">
<circle cx="38" cy="38" r="38" fill="#F6821F" fill-opacity="0.16"/>
<circle cx="38" cy="38" r="34" fill="#141313"/>
<path d="M49.2839 31.55C49.2755 31.5333 49.2678 31.5165 49.2583 31.5001C49.2456 31.478 49.2314 31.4573 49.2173 31.4366C47.483 28.4698 44.6443 26.3106 41.3221 25.4314C38 24.5522 34.4648 25.0244 31.49 26.7449C28.5152 28.4654 26.3428 31.2941 25.4482 34.6121C24.5535 37.9302 25.0094 41.4675 26.7161 44.4502C26.7245 44.4669 26.7322 44.4838 26.7416 44.5001C26.7506 44.5156 26.7614 44.5292 26.7711 44.544C28.5012 47.5156 31.3383 49.6805 34.6612 50.5646C37.9841 51.4487 41.522 50.98 44.5001 49.2611C47.4781 47.5422 49.6537 44.7132 50.5503 41.3937C51.4469 38.0741 50.9916 34.5345 49.2839 31.55ZM46.9833 31.6589L39 36.2681V27.0461C40.5851 27.1917 42.1198 27.6796 43.4981 28.476C44.8764 29.2724 46.0655 30.3583 46.9833 31.6589ZM38 49.0001C36.2389 48.9998 34.5038 48.5764 32.9404 47.7657C31.3771 46.955 30.0315 45.7805 29.0166 44.3413L47.9857 33.3896C48.7601 35.0654 49.1001 36.9093 48.9745 38.7511C48.8488 40.593 48.2615 42.3736 47.2667 43.9288C46.2719 45.4839 44.9016 46.7636 43.2821 47.6499C41.6627 48.5362 39.8461 49.0005 38 49.0001Z" fill="#F6821F"/>
</svg>
