<svg width="76" height="76" viewBox="0 0 76 76" fill="none" xmlns="http://www.w3.org/2000/svg">
<circle cx="38" cy="38" r="38" fill="#F6821F" fill-opacity="0.16"/>
<circle cx="38" cy="38" r="34" fill="#141313"/>
<path d="M33.9825 44.1224C33.7309 44.0385 33.4563 44.0581 33.2191 44.1767C32.9818 44.2953 32.8014 44.5033 32.7175 44.7549C31.8984 47.2122 29.2307 47.9733 27.7004 48.2086C27.9358 46.6776 28.6969 44.0104 31.1542 43.1914C31.2788 43.1499 31.3941 43.0843 31.4934 42.9982C31.5927 42.9122 31.674 42.8074 31.7328 42.6899C31.7916 42.5724 31.8267 42.4445 31.836 42.3135C31.8453 42.1824 31.8287 42.0508 31.7872 41.9262C31.7456 41.8015 31.6799 41.6863 31.5938 41.5871C31.5077 41.4879 31.4029 41.4066 31.2854 41.3478C31.1679 41.2891 31.0399 41.2542 30.9089 41.2449C30.7778 41.2357 30.6462 41.2523 30.5216 41.294C28.4766 41.9757 26.9742 43.6003 26.1769 45.9923C25.8221 47.0652 25.6262 48.1842 25.5952 49.3137C25.5952 49.579 25.7006 49.8333 25.8881 50.0208C26.0757 50.2084 26.33 50.3137 26.5952 50.3137C27.7248 50.2828 28.8438 50.0868 29.9166 49.7321C32.3086 48.9348 33.9332 47.4324 34.615 45.3873C34.6988 45.1357 34.6793 44.8611 34.5607 44.6239C34.4421 44.3867 34.2341 44.2063 33.9825 44.1224Z" fill="#F6821F"/>
<path d="M50.3606 27.2276C50.2991 26.8041 50.1024 26.4118 49.7998 26.1092C49.4972 25.8066 49.1049 25.61 48.6814 25.5485C47.2706 25.338 43.6038 25.2343 40.0303 28.8076L38.909 29.929H31.2522C30.9894 29.9283 30.7292 29.9797 30.4864 30.0802C30.2436 30.1808 30.0232 30.3285 29.8379 30.5147L25.7952 34.5575C25.5392 34.8135 25.3575 35.1342 25.2695 35.4853C25.1815 35.8364 25.1904 36.2048 25.2953 36.5513C25.4002 36.8978 25.5972 37.2092 25.8652 37.4525C26.1333 37.6958 26.4623 37.8618 26.8173 37.9328L31.7591 38.9212L36.9879 44.1499L37.9762 49.0918C38.0471 49.4469 38.2131 49.776 38.4564 50.0441C38.6997 50.3122 39.0112 50.5093 39.3577 50.6142C39.7043 50.7191 40.0728 50.728 40.4239 50.6398C40.7751 50.5517 41.0958 50.3699 41.3517 50.1138L45.3944 46.071C45.5807 45.8857 45.7284 45.6653 45.8289 45.4226C45.9294 45.1799 45.9808 44.9196 45.9801 44.6569V37L47.1014 35.8787C50.6749 32.3052 50.5712 28.6383 50.3606 27.2276ZM31.2522 31.929H36.909L31.9235 36.9145L27.2095 35.9717L31.2522 31.929ZM43.9801 44.6569L39.9374 48.6996L38.9946 43.9856L43.9801 39.0001L43.9801 44.6569Z" fill="#F6821F"/>
</svg>
