<svg width="48" height="48" viewBox="0 0 48 48" fill="none" xmlns="http://www.w3.org/2000/svg">
<circle cx="24" cy="24" r="24" fill="#1E1E1F"/>
<g clip-path="url(#clip0_641_16433)">
<path d="M19.2334 30.2397C19.1306 30.2397 19.0305 30.2397 18.9277 30.2397C18.8693 30.2314 18.8081 30.2259 18.7498 30.2176C18.4106 30.1735 18.0659 30.1542 17.7324 30.0825C14.3245 29.3488 12.1591 26.0309 12.8457 22.6055C13.535 19.1552 16.9374 16.9294 20.3981 17.6576C23.7532 18.3636 25.9658 21.665 25.3265 25.016C24.8178 27.6802 22.7886 29.6798 20.1146 30.1404C19.8255 30.1928 19.5281 30.2093 19.2334 30.2397Z" fill="#E2E2E2"/>
<path d="M26.043 23.8135C26.0596 22.4952 26.2626 21.1631 26.8463 19.9082C27.102 19.3566 27.4245 18.8491 27.8915 18.4464C28.7587 17.6935 29.7705 17.7128 30.6128 18.4933C31.1382 18.9815 31.4856 19.5855 31.7469 20.2391C32.2639 21.5271 32.4391 22.873 32.3946 24.252C32.3612 25.3525 32.1778 26.4281 31.7691 27.4569C31.5106 28.1078 31.1771 28.7145 30.6656 29.2082C30.282 29.5778 29.84 29.8343 29.2924 29.8563C28.7309 29.8784 28.2667 29.6467 27.8637 29.2827C27.3105 28.7835 26.9547 28.1491 26.6851 27.4679C26.2209 26.3095 26.0513 25.0988 26.043 23.8135Z" fill="#E2E2E2"/>
<path d="M35.2774 23.8738C35.2468 25.1232 35.1856 26.3643 34.9355 27.5917C34.8604 27.9585 34.7409 28.317 34.6269 28.6783C34.5908 28.7942 34.5241 28.9045 34.4546 29.0065C34.2517 29.3099 34.0154 29.3127 33.8125 29.0093C33.7346 28.8907 33.6679 28.7611 33.6179 28.6314C33.4038 28.0936 33.2954 27.5282 33.2176 26.9601C32.9313 24.8391 32.9285 22.7182 33.251 20.6001C33.326 20.1119 33.4761 19.6348 33.604 19.1576C33.6429 19.0197 33.718 18.8846 33.7958 18.7632C34.007 18.435 34.2572 18.4295 34.4574 18.7605C34.5741 18.9563 34.6658 19.1714 34.7381 19.3865C34.9799 20.1284 35.0856 20.9007 35.1495 21.6757C35.2106 22.4038 35.2384 23.1402 35.2774 23.8738Z" fill="#E2E2E2"/>
</g>
<defs>
<clipPath id="clip0_641_16433">
<rect width="22.56" height="12.72" fill="white" transform="translate(12.7188 17.52)"/>
</clipPath>
</defs>
</svg>
