<svg width="48" height="48" viewBox="0 0 48 48" fill="none" xmlns="http://www.w3.org/2000/svg">
<circle cx="24" cy="24" r="24" fill="#F6821F" fill-opacity="0.16"/>
<circle cx="24.001" cy="24.0001" r="21.4737" fill="#1E1E1F"/>
<g clip-path="url(#clip0_641_16188)">
<path d="M19.986 29.2547C19.8994 29.2547 19.8152 29.2547 19.7285 29.2547C19.6794 29.2477 19.6279 29.2431 19.5787 29.2361C19.2932 29.1989 19.0029 29.1827 18.722 29.1223C15.8522 28.5045 14.0287 25.7105 14.6069 22.8259C15.1874 19.9204 18.0525 18.0461 20.9668 18.6592C23.7922 19.2538 25.6554 22.0339 25.1171 24.8558C24.6887 27.0993 22.9799 28.7832 20.7281 29.1711C20.4846 29.2152 20.2342 29.2291 19.986 29.2547Z" fill="#F6821F"/>
<path d="M25.7207 23.8438C25.7347 22.7336 25.9056 21.6118 26.3972 20.5551C26.6125 20.0905 26.8841 19.6632 27.2773 19.3241C28.0077 18.6901 28.8597 18.7063 29.569 19.3636C30.0114 19.7747 30.304 20.2833 30.524 20.8338C30.9594 21.9184 31.1069 23.0518 31.0694 24.2131C31.0413 25.1398 30.8868 26.0456 30.5427 26.9119C30.3251 27.46 30.0442 27.9709 29.6134 28.3867C29.2904 28.6979 28.9182 28.9139 28.4571 28.9325C27.9843 28.9511 27.5933 28.756 27.2539 28.4494C26.7881 28.029 26.4885 27.4948 26.2614 26.9212C25.8705 25.9457 25.7277 24.9261 25.7207 23.8438Z" fill="#F6821F"/>
<path d="M33.4968 23.8939C33.4711 24.946 33.4196 25.9911 33.2089 27.0247C33.1457 27.3336 33.0451 27.6355 32.9491 27.9397C32.9187 28.0373 32.8625 28.1302 32.804 28.2161C32.6331 28.4716 32.4341 28.4739 32.2632 28.2184C32.1977 28.1186 32.1415 28.0094 32.0994 27.9003C31.9191 27.4474 31.8278 26.9712 31.7623 26.4928C31.5212 24.7068 31.5189 22.9207 31.7904 21.137C31.8536 20.7259 31.98 20.3241 32.0877 19.9223C32.1204 19.8062 32.1836 19.6924 32.2492 19.5902C32.4271 19.3138 32.6378 19.3092 32.8063 19.5879C32.9046 19.7528 32.9819 19.9339 33.0427 20.1151C33.2464 20.7398 33.3353 21.3902 33.3892 22.0428C33.4406 22.6559 33.4641 23.2761 33.4968 23.8939Z" fill="#F6821F"/>
</g>
<defs>
<clipPath id="clip0_641_16188">
<rect width="18.9979" height="10.7116" fill="white" transform="translate(14.5 18.543)"/>
</clipPath>
</defs>
</svg>
