<svg width="48" height="48" viewBox="0 0 48 48" fill="none" xmlns="http://www.w3.org/2000/svg">
<circle cx="24" cy="24" r="24" fill="#1E1E1F"/>
<path fill-rule="evenodd" clip-rule="evenodd" d="M36 24C36 30.6274 30.6274 36 24 36C17.3726 36 12 30.6274 12 24C12 17.3726 17.3726 12 24 12C30.6274 12 36 17.3726 36 24ZM24.4299 20.8591C23.2627 21.3445 20.93 22.3493 17.4318 23.8734C16.8637 24.0993 16.5661 24.3203 16.539 24.5364C16.4933 24.9016 16.9506 25.0454 17.5734 25.2412C17.6581 25.2679 17.7458 25.2955 17.8358 25.3247C18.4485 25.5239 19.2727 25.7569 19.7012 25.7662C20.0898 25.7746 20.5236 25.6143 21.0025 25.2855C24.271 23.0791 25.9583 21.9639 26.0642 21.9399C26.1389 21.9229 26.2425 21.9016 26.3126 21.964C26.3828 22.0263 26.3759 22.1444 26.3685 22.1761C26.3232 22.3693 24.528 24.0382 23.599 24.9019C23.3094 25.1712 23.104 25.3621 23.062 25.4058C22.9679 25.5035 22.872 25.5959 22.7799 25.6847C22.2106 26.2335 21.7838 26.6449 22.8035 27.3169C23.2935 27.6398 23.6856 27.9069 24.0768 28.1733C24.5041 28.4642 24.9302 28.7544 25.4815 29.1158C25.622 29.2079 25.7561 29.3035 25.8868 29.3967C26.384 29.7511 26.8306 30.0695 27.3825 30.0188C27.7031 29.9893 28.0343 29.6877 28.2026 28.7885C28.6001 26.6633 29.3815 22.0586 29.5621 20.1611C29.5779 19.9949 29.558 19.7821 29.542 19.6887C29.526 19.5953 29.4926 19.4622 29.3712 19.3637C29.2275 19.2471 29.0055 19.2225 28.9062 19.2242C28.4549 19.2322 27.7624 19.4729 24.4299 20.8591Z" fill="#E2E2E2"/>
</svg>
