<svg width="40" height="40" viewBox="0 0 40 40" fill="none" xmlns="http://www.w3.org/2000/svg">
<path d="M32.0533 2.04444L23.707 14.4444C23.1299 15.2889 24.2397 16.3111 25.0388 15.6L33.2519 8.44444C33.4739 8.26667 33.7847 8.4 33.7847 8.71111V31.0667C33.7847 31.3778 33.3851 31.5111 33.2075 31.2889L8.34628 1.51111C7.54717 0.533333 6.3929 0 5.10544 0H4.21754C1.90899 0 0 1.91111 0 4.26667V35.7333C0 38.0889 1.90899 40 4.26193 40C5.72697 40 7.10322 39.2444 7.90233 37.9556L16.2486 25.5556C16.8257 24.7111 15.7159 23.6889 14.9168 24.4L6.70366 31.5111C6.48169 31.6889 6.17092 31.5556 6.17092 31.2444V8.93333C6.17092 8.62222 6.57048 8.48889 6.74806 8.71111L31.6093 38.4889C32.4084 39.4667 33.6071 40 34.8502 40H35.7381C38.091 40 40 38.0889 40 35.7333V4.26667C40 1.91111 38.091 0 35.7381 0C34.2286 0 32.8524 0.755555 32.0533 2.04444Z" fill="#EAECEF"/>
</svg>
