<svg width="40" height="40" viewBox="0 0 38 37" fill="none" xmlns="http://www.w3.org/2000/svg">
<path d="M24.5185 22.3964V36.1982H38.3203L24.5185 22.3964ZM12.5905 10.4685L17.9959 15.8739L23.4554 10.4145V0.378418H12.5725V10.4685H12.5905ZM12.5905 15.3514V36.1982H23.4734V15.2973L18.014 20.7568L12.5905 15.3514ZM25.1851 0.378418H24.5185V9.35139L31.4734 2.41445C29.6356 1.09914 27.4374 0.378418 25.1851 0.378418ZM0.12207 19.5316V36.1982H11.5275V14.2883L8.44639 11.2072L0.12207 19.5316ZM0.12207 14.6667L8.44639 6.34238L11.5275 9.42346V0.378418H0.12207V14.6667ZM35.9419 11.1352C35.9419 8.88292 35.2392 6.68473 33.9239 4.86491L24.5365 14.2343V21.8739H25.2032C31.1311 21.8739 35.9419 17.0631 35.9419 11.1352Z" fill="#EAECEF"/>
</svg>
